PathFileType	4	(X/Y/Z)	T1_P1_NoVision_NoMovement_3_0-639.trc
DataRate	CameraRate	NumFrames	NumMarkers	Units	OrigDataRate	OrigDataStartFrame	OrigNumFrames
60	60	7	27	m	60	319	639
Frame#	Time	RHip			RKnee			RAnkle			RBigToe			RSmallToe			RHeel			LHip			LKnee			LAnkle			LBigToe			LSmallToe			LHeel			Neck			Head			Nose			RShoulder			RElbow			RWrist			RThumb			RIndex			RPinky			LShoulder			LElbow			LWrist			LThumb			LIndex			LPinky		
		X1	Y1	Z1	X2	Y2	Z2	X3	Y3	Z3	X4	Y4	Z4	X5	Y5	Z5	X6	Y6	Z6	X7	Y7	Z7	X8	Y8	Z8	X9	Y9	Z9	X10	Y10	Z10	X11	Y11	Z11	X12	Y12	Z12	X13	Y13	Z13	X14	Y14	Z14	X15	Y15	Z15	X16	Y16	Z16	X17	Y17	Z17	X18	Y18	Z18	X19	Y19	Z19	X20	Y20	Z20	X21	Y21	Z21	X22	Y22	Z22	X23	Y23	Z23	X24	Y24	Z24	X25	Y25	Z25	X26	Y26	Z26	X27	Y27	Z27
320	5.333333333333333	-66.25435665179128	3788.459670956553	-545.8709781968641	291.36213741267784	3881.9789585170493	-549.4048133894511	647.2492935405447	4187.022695944828	-600.7739699879163	694.3298861267288	3959.260777570469	-497.5850785586207	715.6447406421717	4031.9599424858975	-597.3842916228692	681.3122237837542	4202.830475739019	-566.941441255257	-108.18985017019688	3895.5775385520506	-352.54223383860216	238.66519164277088	3983.621272533801	-355.53148335288176	586.4721590641122	4198.015281444347	-384.78132592197034	677.2443791131632	4132.202301582485	-328.9099163197111	640.0173493202726	4143.100827172716	-291.9535727010317	622.2206115817854	4241.791343395186	-418.3518068632534	-647.230208968971	3660.10612475412	-464.2281510431097	-891.3630391928934	3517.7047878304775	-416.3359595280472	-733.1085565308487	3544.9345459124734	-396.4920633788435	-557.1520607913278	3634.799521460448	-623.5298991039042	-293.5156094624384	3750.277992994068	-705.7972528512365	-38.45846941637	3692.0339685456925	-612.6926906857484	76.6997843601725	3795.5514309533387	-576.9387400592386	92.81026878963581	3771.7271802925666	-576.5878886240109	84.50988167936185	3731.6883603313595	-590.2077845025302	-604.1394696908343	3747.025800550419	-335.0831237305287	-386.78969732463855	3978.0909501268934	-330.8168326540234	-118.08330701772519	3981.5852958100654	-294.0727273025907	18.06624530980336	3933.0445005177003	-321.8307647689852	32.709177394105204	3909.40321057082	-269.5527887295404	6.409141329048114	3994.5717507845743	-248.17822584942166
321	5.35	-66.26187783263701	3788.8377498002637	-546.1283725401765	290.84573469899397	3886.589345400057	-553.4271394484098	646.5466698576637	4188.270436477467	-602.5813964640583	694.4693063972447	3958.544536851066	-499.06209310734096	713.7497198343233	4031.5101633325944	-597.8533223429057	680.6240994250967	4204.549117742508	-568.7585801862531	-108.08094603161797	3898.6411362565605	-354.6476865778529	238.59879821834147	3983.6579943187503	-355.53816305479046	585.0149348880752	4197.579941806572	-384.98338210344514	676.0896884366965	4132.005680364395	-329.44625705439216	640.5720023946408	4140.299311622821	-291.6538292366621	618.8954410057726	4238.10175546543	-415.08144024156786	-645.7740875297693	3660.7906326007824	-464.371166325539	-891.4913845751142	3520.766414591708	-417.0397285282713	-731.8230231898892	3542.6095439568153	-393.5927050106212	-557.1520236961089	3634.78842055972	-623.5174805689188	-293.4844726456316	3750.3304760221818	-705.807543905225	-38.50830884561422	3691.9773573017255	-612.4663634062167	76.63993378622715	3795.5299861187823	-576.9365951127317	92.84640022396984	3771.7872233013045	-576.5905513891723	84.50395305808533	3731.660277504656	-589.8177217973326	-604.1088120817317	3746.9622306153833	-335.03114154049933	-386.62505479437124	3975.1983056279632	-328.80767129004016	-118.10864183470382	3981.7149008788583	-294.74603222780866	17.310484536149858	3932.4550698033536	-321.5632864125568	32.36389848579493	3906.678465011086	-267.6087362661126	8.434011119640576	3995.4201105277743	-248.08501943645064
322	5.366666666666666	-66.26749741312848	3789.073050393962	-546.28164003262	289.2489608228979	3885.957116675101	-553.3874704563923	647.0769205234499	4186.456478387687	-600.9533968269513	696.2780492347163	3958.196199662487	-499.6493828092638	712.2139237774591	4031.471581280245	-598.3583679545749	681.1183470059569	4205.5520756640035	-569.5876485209021	-108.01517824865994	3900.6969251436626	-356.0589371547048	239.14719572739048	3990.877023242465	-356.74977152645425	584.9748350395621	4197.33382112828	-384.744855582515	676.729478887116	4134.5674782773685	-330.9977591625922	641.4595853930933	4141.577856044959	-292.93572179606315	618.5722723788033	4237.609357234769	-412.56243624857547	-645.1450250103842	3661.1944176338066	-464.52327676628977	-890.7656593996987	3521.9966705711186	-417.32418564901275	-729.9355777927647	3536.4617087934125	-389.86895630648337	-557.150192096415	3634.772205190718	-623.4979698428606	-293.46491994576326	3750.345177145185	-705.8440018105832	-37.853944628235055	3685.6089508688397	-610.5128299911756	76.01746408519732	3795.0771955730297	-576.711839383952	92.80688710525794	3771.905217811167	-576.0804281245393	84.52732616997919	3731.5308641711504	-589.5420787250313	-604.0826593026591	3746.932303194505	-335.00927076859955	-386.55187692531547	3973.851332173469	-327.84466513371837	-118.02599301110071	3982.213173213162	-296.5402531446657	16.634783401191793	3932.074084417976	-321.41165066512696	32.154530727308355	3906.3633639729887	-266.88637091083183	10.404733509239962	3996.2015760911004	-247.86777547699964
323	5.383333333333334	-66.29377131070206	3788.5409695377753	-545.8642444284163	287.03590531923567	3879.8338612823336	-548.6824379182647	649.1313160755153	4184.04759706393	-597.2084380786757	698.4492486375567	3957.525288629637	-498.5874466695513	712.2929798113469	4031.697020760912	-598.213795986746	683.2620027466648	4208.865828926269	-571.2879629158599	-108.05127417897786	3900.682456880516	-356.0489463488992	240.30403879610625	4001.2766818115115	-358.4803132353359	586.490861735478	4197.915414748995	-384.4072192592226	679.14705711241	4139.369442096813	-333.20288473505667	642.557422465194	4145.983920581714	-295.4010450292075	622.0107087237925	4241.647876604255	-412.9651743689889	-645.5348530159224	3661.151569732649	-464.56952055081024	-890.8939546723406	3524.0897965236336	-417.7995912569304	-728.5867454189046	3531.4905479268987	-387.7779582118716	-557.1568675866982	3634.7589996609095	-623.4821566767602	-293.47221336542225	3750.3116131015363	-705.8649530372725	-37.43639733916736	3678.340166199648	-608.2699427402202	74.6947754861594	3794.087756082554	-576.1979122000117	92.65236744297745	3772.1927438205844	-574.8099511667581	84.49408639263443	3731.2323787372457	-588.9459170427325	-604.0651708040712	3746.9393645501486	-335.01811887352494	-386.63455325719985	3975.295398401262	-328.76920600276384	-117.84535758836374	3982.9450602322913	-298.957290349215	15.867129557369703	3931.9612446710885	-321.4330048746599	32.15685858126101	3908.6045224945747	-267.58219281116595	11.813403484885093	3996.7787271220564	-247.69446517771803
324	5.4	-66.37446850363165	3786.522267360279	-544.3118366333634	285.4950200893561	3870.8198100318214	-541.045455140005	651.878746152591	4183.890579634949	-594.2135060883071	700.872832795151	3956.012216721741	-496.3788085247186	714.0835033252471	4032.347915229853	-597.7450834343817	686.0863499410904	4214.4098034457675	-574.1538134603337	-108.21985159760332	3898.5317482051278	-354.5709403747424	241.63341044402165	4009.349313371687	-359.77047592424515	588.1694117008418	4198.740665289657	-384.18253020718936	681.6085323697673	4142.67513719463	-334.20039505842595	643.3382283103568	4150.82880752682	-297.1249229764251	626.5196306514159	4246.751648159832	-415.3061879377026	-647.0075588159715	3660.5901171777023	-464.4611701794827	-892.5076205840599	3526.5311616483864	-418.3397704991646	-728.5624792737449	3532.082257651981	-388.4477375718701	-557.1792192923391	3634.7538542690104	-623.4842606227613	-293.5011312123152	3750.2723183337657	-705.8644005188487	-37.72017798710252	3674.3239121795273	-606.9225036442376	73.48767709202465	3793.0967415694504	-575.6744634021627	92.47607752286822	3772.563769617694	-573.1756733126101	84.4279250944072	3730.8697120961333	-588.0715487771515	-604.0580889359585	3746.961583188594	-335.0422934461848	-386.71758806344593	3976.265473658076	-329.3484060791298	-117.68403266905511	3983.542157876448	-300.83279411313043	14.690639755474372	3932.013376811934	-321.60459458314335	32.509119505887284	3914.202911044861	-270.918023205275	12.245684434697122	3997.0170901932597	-247.65724710544646
325	5.416666666666667	-66.49654918701242	3783.54602778362	-541.9997249726841	284.9981456734622	3862.6330484242144	-534.2427836283565	654.7440875536981	4186.95617085176	-594.1328924354748	703.8987459680029	3954.350742335184	-494.61715891167586	716.6794595652574	4033.460227994178	-597.6238950864762	688.2440939970961	4218.263570742636	-575.6716800201038	-108.46572506644623	3895.2619910478284	-352.3140497948691	242.27812127088953	4012.5639035123063	-360.2603254967504	588.4169100748869	4198.9359421056515	-384.2357490488189	682.2046680323325	4141.511022511384	-332.82006875483944	643.1761405922631	4154.058606126174	-296.7924784808247	628.2593752275983	4247.243477769405	-416.8158613838543	-648.4206738899775	3660.0640877773585	-464.3679965719464	-894.2523953386914	3527.7647428421574	-418.6197072540599	-729.7815083592685	3538.260227657848	-391.3561464637822	-557.2035862018964	3634.7522955258537	-623.5070474127219	-293.50552814866774	3750.261646821082	-705.8572249506348	-37.89945849275604	3674.262806588811	-606.7887211142432	73.5818281162076	3792.9082144792287	-575.5562765571608	92.44789980350103	3772.7579013397462	-572.0495353591323	84.47166937975133	3731.249067811612	-587.7864805545929	-604.0548624905902	3746.976274885341	-335.065107821508	-386.60213339098317	3973.18612939814	-327.28659553697497	-117.58872563007557	3983.834467284351	-301.62017350294263	13.636208035746757	3932.1587740053037	-321.82269920683314	33.13703833685584	3921.6082381174933	-276.3301557000306	11.610590463700726	3996.8757617712063	-247.78398347063893
326	5.433333333333334	-66.56165467948604	3782.113293422885	-540.8381147094926	284.6947407147285	3857.6715465639586	-531.1172122426052	656.9776244927449	4190.8543486417175	-596.0823169596462	706.5771279661252	3952.5847292084422	-493.73227553355986	718.9930366478284	4034.6499163993503	-597.9625939948393	688.8112554014526	4217.439267991509	-573.9528594228393	-108.47257004330116	3893.62033115295	-351.1508911447559	241.8217713184061	4012.3625858981236	-360.17495501282883	587.3596162402492	4198.536276821503	-384.59891757946104	681.0493933901635	4137.759440213527	-330.47942524075967	642.2030433467824	4156.070637141414	-295.5024539122157	626.6161595848434	4242.693365057143	-416.76391314057014	-648.541938704716	3660.14501545644	-464.4525763569907	-894.9098963642334	3528.1353676328736	-418.78003863584036	-731.6390203834677	3546.289810336171	-394.8877918720479	-557.2105827945275	3634.7540030778778	-623.5405861487956	-293.42746935767127	3750.289029517954	-705.861703772592	-37.124780690150445	3677.728338396487	-607.8272719977903	74.98064920641866	3793.588278087025	-575.8739134819979	92.63105534921839	3772.651711372403	-571.9530972425111	84.71092728614249	3734.169069200738	-588.9844033046214	-604.0488193595576	3746.973470042809	-335.07424787406416	-386.2910233640517	3967.310885627867	-323.79552261694045	-117.51694096904752	3983.941658268148	-301.69935688067824	13.671271332978911	3932.3390038038833	-321.93422040451503	33.664492975783475	3926.7409275331147	-280.617467549985	10.058781016454173	3996.3511217734253	-248.04770262100473
